<?xml version="1.0" encoding="utf-8"?>
<!-- Generator: Adobe Illustrator 19.0.0, SVG Export Plug-In . SVG Version: 6.00 Build 0)  -->
<svg version="1.1" id="Layer_1" xmlns="http://www.w3.org/2000/svg" xmlns:xlink="http://www.w3.org/1999/xlink" x="0px" y="0px"
	 viewBox="0 0 491 560" style="enable-background:new 0 0 491 560;" xml:space="preserve">
<g id="XMLID_947_">
	<g id="XMLID_956_">
		<g id="XMLID_957_">
			<path id="XMLID_958_" d="M184.8,399.4c-99.6,0-180.5-81-180.5-180.5s81-180.5,180.5-180.5s180.5,81,180.5,180.5
				S284.4,399.4,184.8,399.4z M184.8,78.4c-77.4,0-140.4,63-140.4,140.4s63,140.4,140.4,140.4s140.4-63,140.4-140.4
				S262.2,78.4,184.8,78.4z"/>
		</g>
	</g>
	<g id="XMLID_953_">
		<g id="XMLID_954_">
			<path id="XMLID_955_" d="M435.6,519.7c-12.8,0-25.7-4.9-35.4-14.7L260.7,365.6c-7.8-7.8-7.8-20.5,0-28.4c7.8-7.8,20.5-7.8,28.4,0
				l139.4,139.4c4,4,10.2,4,14.2,0c1.9-2,2.9-4.3,2.9-7.1c0-2.7-1-5.1-3-7.1l-86.6-86.6c-7.8-7.8-7.8-20.5,0-28.4s20.5-7.8,28.4,0
				l86.6,86.6c9.5,9.5,14.7,22.1,14.7,35.4s-5.2,25.9-14.7,35.4C461.3,514.8,448.4,519.7,435.6,519.7z"/>
		</g>
	</g>
	<g id="XMLID_948_">
		<g id="XMLID_949_">
			<path id="XMLID_950_" d="M104.6,238.9c-11.1,0-20.1-9-20.1-20.1c0-55.3,45-100.3,100.3-100.3c11.1,0,20.1,9,20.1,20.1
				s-9,20.1-20.1,20.1c-33.2,0-60.2,27-60.2,60.2C124.6,229.9,115.7,238.9,104.6,238.9z"/>
		</g>
	</g>
</g>
</svg>
