<?xml version="1.0" encoding="utf-8"?>
<!-- Generator: Adobe Illustrator 19.0.0, SVG Export Plug-In . SVG Version: 6.00 Build 0)  -->
<svg version="1.1" id="Layer_1" xmlns="http://www.w3.org/2000/svg" xmlns:xlink="http://www.w3.org/1999/xlink" x="0px" y="0px"
	 viewBox="0 0 491 560" style="enable-background:new 0 0 491 560;" xml:space="preserve">
<g id="XMLID_180_">
	<g id="XMLID_218_">
		<path id="XMLID_227_" d="M69.5,542.2c-12.1,0-21.5-9.8-21.5-21.8V192.6c0-12.1,9.4-21.8,21.5-21.8S91,180.5,91,192.6v327.7
			C91,532.4,81.6,542.2,69.5,542.2z"/>
	</g>
	<g id="XMLID_215_">
		<path id="XMLID_217_" d="M69.5,127.1c-12.1,0-21.5-9.8-21.5-21.8V39.7c0-12.1,9.4-21.8,21.5-21.8S91,27.6,91,39.7v65.5
			C91,117.3,81.6,127.1,69.5,127.1z"/>
	</g>
	<g id="XMLID_199_">
		<path id="XMLID_213_" d="M245,542.2c-12.1,0-22-9.8-22-21.8v-65.5c0-12.1,9.9-21.8,22-21.8s22,9.8,22,21.8v65.5
			C267,532.4,257.1,542.2,245,542.2z"/>
	</g>
	<g id="XMLID_197_">
		<path id="XMLID_198_" d="M245,389.2c-12.1,0-22-9.8-22-21.8V39.7c0-12.1,9.9-21.8,22-21.8s22,9.8,22,21.8v327.7
			C267,379.5,257.1,389.2,245,389.2z"/>
	</g>
	<g id="XMLID_195_">
		<path id="XMLID_196_" d="M420.5,542.2c-12.1,0-21.5-9.8-21.5-21.8V192.6c0-12.1,9.4-21.8,21.5-21.8s21.5,9.8,21.5,21.8v327.7
			C442,532.4,432.6,542.2,420.5,542.2z"/>
	</g>
	<g id="XMLID_193_">
		<path id="XMLID_194_" d="M420.5,127.1c-12.1,0-21.5-9.8-21.5-21.8V39.7c0-12.1,9.4-21.8,21.5-21.8S442,27.6,442,39.7v65.5
			C442,117.3,432.6,127.1,420.5,127.1z"/>
	</g>
	<g id="XMLID_189_">
		<path id="XMLID_190_" d="M70.2,214.5c-36.1,0-65.5-29.4-65.5-65.5s29.4-65.5,65.5-65.5s65.5,29.4,65.5,65.5
			S106.4,214.5,70.2,214.5z M70.2,127.1c-12.1,0-21.8,9.8-21.8,21.8s9.8,21.8,21.8,21.8s21.8-9.8,21.8-21.8S82.3,127.1,70.2,127.1z"
			/>
	</g>
	<g id="XMLID_185_">
		<path id="XMLID_186_" d="M419.8,214.5c-36.1,0-65.5-29.4-65.5-65.5s29.4-65.5,65.5-65.5s65.5,29.4,65.5,65.5
			S455.9,214.5,419.8,214.5z M419.8,127.1c-12.1,0-21.8,9.8-21.8,21.8s9.8,21.8,21.8,21.8c12.1,0,21.8-9.8,21.8-21.8
			S431.8,127.1,419.8,127.1z"/>
	</g>
	<g id="XMLID_181_">
		<path id="XMLID_182_" d="M245,476.6c-36.1,0-65.5-29.4-65.5-65.5s29.4-65.5,65.5-65.5s65.5,29.4,65.5,65.5S281.1,476.6,245,476.6z
			 M245,389.2c-12.1,0-21.8,9.8-21.8,21.8s9.8,21.8,21.8,21.8c12.1,0,21.8-9.8,21.8-21.8S257.1,389.2,245,389.2z"/>
	</g>
</g>
</svg>
