<?xml version="1.0" encoding="utf-8"?>
<!-- Generator: Adobe Illustrator 19.0.0, SVG Export Plug-In . SVG Version: 6.00 Build 0)  -->
<svg version="1.1" id="Layer_1" xmlns="http://www.w3.org/2000/svg" xmlns:xlink="http://www.w3.org/1999/xlink" x="0px" y="0px"
	 viewBox="-265 357 80 80" style="enable-background:new -265 357 80 80;" xml:space="preserve">
<style type="text/css">
	.st0{fill:#FFFFFF;}
</style>
<g id="Layer_2">
	<g id="Layer_3">
		<path class="st0" d="M-225,362.4c-19.1,0-34.6,15.5-34.6,34.6s15.5,34.6,34.5,34.6s34.6-15.5,34.7-34.6l0,0
			C-190.5,377.9-205.9,362.5-225,362.4z M-225,428.6c-17.4,0-31.6-14.2-31.6-31.6s14.2-31.6,31.6-31.6s31.5,14.2,31.6,31.6l0,0
			C-193.5,414.4-207.6,428.5-225,428.6z"/>
		<path class="st0" d="M-200.4,396.1c-9.6-13.7-28.4-17.1-42.1-7.5c-2.9,2-5.5,4.6-7.5,7.5l-0.6,0.9l0.6,0.9
			c9.6,13.7,28.4,17.1,42.1,7.5c2.9-2,5.5-4.6,7.5-7.5l0.6-0.9L-200.4,396.1z M-225.2,407.8c-8.5,0-16.6-4-21.7-10.8
			c9.1-12,26.2-14.4,38.2-5.3c2,1.5,3.8,3.3,5.3,5.3C-208.6,403.8-216.7,407.8-225.2,407.8z"/>
		<path class="st0" d="M-224.9,388.2c-4.9,0-8.8,3.9-8.8,8.8s3.9,8.8,8.8,8.8c4.9,0,8.8-3.9,8.8-8.8
			C-216.2,392.2-220.1,388.3-224.9,388.2z M-224.9,402.9c-3.2,0-5.8-2.6-5.8-5.8c0-3.2,2.6-5.8,5.8-5.8c3.2,0,5.8,2.6,5.8,5.8l0,0
			C-219.2,400.3-221.7,402.9-224.9,402.9z"/>
		<circle class="st0" cx="-224.9" cy="397" r="3.3"/>
	</g>
</g>
</svg>
