<?xml version="1.0" encoding="utf-8"?>
<!-- Generator: Adobe Illustrator 19.0.0, SVG Export Plug-In . SVG Version: 6.00 Build 0)  -->
<svg version="1.1" id="Layer_1" xmlns="http://www.w3.org/2000/svg" xmlns:xlink="http://www.w3.org/1999/xlink" x="0px" y="0px"
	 viewBox="-293 385 24 24" style="enable-background:new -293 385 24 24;" xml:space="preserve">
<style type="text/css">
	.st0{fill:#FFFFFF;}
</style>
<g id="miu">
	<g id="Artboard-1" transform="translate(-647.000000, -155.000000)">
		<g id="slice" transform="translate(215.000000, 119.000000)">
		</g>
		<path id="circle-gift-present-outline-stroke" class="st0" d="M354,552.1c0-6.6,5.3-11.9,11.9-11.9s11.9,5.3,11.9,11.9
			s-5.3,11.9-11.9,11.9S354,558.7,354,552.1z M376.8,552.1c0-6-4.9-10.9-10.9-10.9S355,546,355,552.1s4.9,10.9,10.9,10.9
			S376.8,558.1,376.8,552.1z M365.4,546.4l0.5,1l0.5-1v-4.2h-1V546.4z M365.4,555.7v6.2h1v-6.2l-0.5-1L365.4,555.7z M366.5,553.1
			c0,0,1.6,1.6,1.8,2.6c0.3,1.6,2.8,3.1,2.8,3.1l-0.5-1.2h1.4c0,0-2.2-1-2.5-2.3c-0.3-1.3-1.9-2.6-1.9-2.6L366.5,553.1z
			 M365.6,553.1c0,0-1.6,1.6-1.8,2.6c-0.3,1.6-2.8,3.1-2.8,3.1l0.5-1.2h-1.4c0,0,2.2-1,2.5-2.3c0.3-1.3,1.9-2.6,1.9-2.6L365.6,553.1
			z M369.6,552.6h6.2v-1h-4.7L369.6,552.6z M356.1,552.6h6.2l-1.6-1h-4.7V552.6z M365.9,552.6c0.3,0,0.5-0.2,0.5-0.5
			s-0.2-0.5-0.5-0.5s-0.5,0.2-0.5,0.5S365.7,552.6,365.9,552.6z M371.4,546.6c-3-3-5.1,2.9-5.1,2.9l0.4,1.8c0,0,2.2-5.9,4-4
			c1.8,1.8-4,4-4,4l1.8,0.4C368.4,551.8,374.4,549.6,371.4,546.6z M360.5,546.6c-3,3,2.9,5.1,2.9,5.1l1.8-0.4c0,0-5.9-2.2-4-4
			c1.8-1.8,4,4,4,4l0.4-1.8C365.6,549.6,363.5,543.6,360.5,546.6z"/>
	</g>
</g>
</svg>
