<?xml version="1.0" encoding="utf-8"?>
<!-- Generator: Adobe Illustrator 19.0.0, SVG Export Plug-In . SVG Version: 6.00 Build 0)  -->
<svg version="1.1" id="Layer_1" xmlns="http://www.w3.org/2000/svg" xmlns:xlink="http://www.w3.org/1999/xlink" x="0px" y="0px"
	 viewBox="0 0 222 111" style="enable-background:new 0 0 222 111;" xml:space="preserve">
<style type="text/css">
	.st0{fill:#FFFFFF;}
	.st1{fill:#78C143;}
</style>
<g id="XMLID_2_">
	<path id="XMLID_3_" class="st0" d="M18.8,51.5c-0.9-0.2-1.9-0.2-2.8-0.2c-3.2,0-5.3,1.2-6.4,3.7v21.2h-7v-31h6.6l0.2,3.5
		c1.7-2.7,4-4,7-4c1,0,1.8,0.1,2.5,0.4L18.8,51.5z"/>
	<path id="XMLID_5_" class="st0" d="M36.3,76.7c-4.4,0-8-1.4-10.7-4.2c-2.7-2.8-4.1-6.5-4.1-11.1v-0.9c0-3.1,0.6-5.9,1.8-8.3
		c1.2-2.4,2.9-4.3,5-5.7c2.2-1.4,4.6-2,7.2-2c4.2,0,7.5,1.3,9.8,4c2.3,2.7,3.4,6.5,3.4,11.4v2.8H28.5c0.2,2.6,1.1,4.6,2.6,6.1
		c1.5,1.5,3.4,2.2,5.7,2.2c3.2,0,5.8-1.3,7.8-3.9l3.8,3.6c-1.2,1.9-2.9,3.3-5,4.3C41.2,76.2,38.8,76.7,36.3,76.7z M35.4,50.2
		c-1.9,0-3.4,0.7-4.6,2c-1.2,1.3-1.9,3.2-2.2,5.6h13.3v-0.5C41.7,54.9,41,53.2,40,52C38.9,50.8,37.4,50.2,35.4,50.2z"/>
	<path id="XMLID_8_" class="st0" d="M58.4,68.8c1.3,0,2.3,0.4,3,1.1c0.7,0.7,1.1,1.7,1.1,2.8c0,1.1-0.4,2-1.1,2.7
		c-0.7,0.7-1.7,1.1-3,1.1c-1.2,0-2.2-0.4-2.9-1.1c-0.7-0.7-1.1-1.6-1.1-2.7s0.4-2,1.1-2.8C56.2,69.2,57.1,68.8,58.4,68.8z"/>
	<path id="XMLID_10_" class="st1" d="M103.3,62.3c-0.3,4.5-2,8-5,10.6c-3,2.6-6.9,3.9-11.8,3.9c-5.3,0-9.5-1.8-12.6-5.4
		c-3.1-3.6-4.6-8.5-4.6-14.8V54c0-4,0.7-7.5,2.1-10.6c1.4-3.1,3.4-5.4,6.1-7c2.6-1.6,5.7-2.4,9.1-2.4c4.8,0,8.7,1.3,11.6,3.9
		c2.9,2.6,4.6,6.2,5.1,10.8h-8.6c-0.2-2.7-1-4.6-2.2-5.9c-1.3-1.2-3.2-1.8-5.9-1.8c-2.9,0-5,1-6.4,3.1c-1.4,2.1-2.2,5.2-2.2,9.5v3.1
		c0,4.5,0.7,7.8,2,9.9c1.4,2.1,3.5,3.1,6.5,3.1c2.7,0,4.6-0.6,5.9-1.8c1.3-1.2,2.1-3.1,2.2-5.6H103.3z"/>
	<path id="XMLID_12_" class="st1" d="M107.1,60.4c0-3.1,0.6-5.8,1.8-8.2c1.2-2.4,2.9-4.3,5.1-5.6c2.2-1.3,4.8-2,7.7-2
		c4.2,0,7.6,1.3,10.2,3.8c2.6,2.6,4.1,6,4.4,10.4l0.1,2.1c0,4.8-1.3,8.6-4,11.4c-2.7,2.9-6.2,4.3-10.7,4.3s-8-1.4-10.7-4.3
		s-4-6.8-4-11.7V60.4z M115.4,61c0,2.9,0.6,5.2,1.7,6.8c1.1,1.6,2.7,2.3,4.8,2.3c2,0,3.6-0.8,4.7-2.3s1.7-4,1.7-7.4
		c0-2.9-0.6-5.1-1.7-6.7c-1.1-1.6-2.7-2.4-4.8-2.4c-2,0-3.6,0.8-4.7,2.4C116,55.2,115.4,57.7,115.4,61z"/>
	<path id="XMLID_15_" class="st1" d="M152.7,66l5.8-20.9h8.6l-10.4,31h-7.9l-10.4-31h8.6L152.7,66z"/>
	<path id="XMLID_17_" class="st1" d="M184.7,76.7c-4.5,0-8.2-1.4-11.1-4.2c-2.9-2.8-4.3-6.5-4.3-11.1v-0.8c0-3.1,0.6-5.9,1.8-8.3
		s2.9-4.3,5.1-5.7c2.2-1.3,4.7-2,7.5-2c4.2,0,7.6,1.3,10,4c2.4,2.7,3.6,6.5,3.6,11.4v3.4h-19.7c0.3,2,1.1,3.6,2.4,4.9
		c1.3,1.2,3,1.8,5.1,1.8c3.2,0,5.7-1.2,7.5-3.5l4.1,4.6c-1.2,1.8-2.9,3.1-5,4.1C189.6,76.2,187.2,76.7,184.7,76.7z M183.7,51.3
		c-1.6,0-3,0.6-4,1.7s-1.7,2.7-2,4.8h11.5V57c0-1.8-0.5-3.3-1.5-4.3C186.8,51.8,185.5,51.3,183.7,51.3z"/>
	<path id="XMLID_20_" class="st1" d="M219.5,52.9c-1.1-0.2-2.1-0.2-3-0.2c-3.1,0-5.2,1.1-6.2,3.2v20.3h-8.3v-31h7.8l0.2,3.7
		c1.7-2.8,4-4.3,6.9-4.3c0.9,0,1.8,0.1,2.6,0.4L219.5,52.9z"/>
</g>
</svg>
