<?xml version="1.0" encoding="utf-8"?>
<!-- Generator: Adobe Illustrator 19.0.0, SVG Export Plug-In . SVG Version: 6.00 Build 0)  -->
<svg version="1.1" id="Layer_1" xmlns="http://www.w3.org/2000/svg" xmlns:xlink="http://www.w3.org/1999/xlink" x="0px" y="0px"
	 viewBox="0 0 491 560" style="enable-background:new 0 0 491 560;" xml:space="preserve">
<style type="text/css">
	.st0{stroke:#000000;stroke-miterlimit:10;}
</style>
<g id="XMLID_111_">
	<g id="XMLID_117_">
		<path id="XMLID_118_" class="st0" d="M247,381.5c-55.9,0-101.5-45.5-101.5-101.5S191.1,178.5,247,178.5c9.7,0,19.4,1.4,28.7,4.1
			c10.8,3.2,16.9,14.4,13.7,25.2c-3.2,10.7-14.4,16.9-25.2,13.7c-5.5-1.6-11.4-2.5-17.2-2.5c-33.6,0-60.9,27.3-60.9,60.9
			s27.3,60.9,60.9,60.9s60.9-27.3,60.9-60.9c0-4.6-0.5-9.2-1.5-13.7c-2.5-10.9,4.3-21.8,15.3-24.3c10.8-2.6,21.8,4.4,24.3,15.3
			c1.7,7.4,2.6,15.1,2.6,22.7C348.5,335.9,302.9,381.5,247,381.5z"/>
	</g>
	<g id="XMLID_112_">
		<path id="XMLID_113_" class="st0" d="M267.3,523.5h-40.6c-22.4,0-40.6-18.2-40.6-40.6v-30.7c-6-2-12.2-4.6-18.2-7.5l-21.3,21.8
			c-7.6,7.7-17.8,11.9-28.7,11.9c0,0,0,0,0,0c-10.8,0-21-4.2-28.7-11.9l-28.7-28.7c-7.7-7.6-11.9-17.8-11.9-28.7
			c0-10.8,4.2-21,11.9-28.7l21.7-21.7c-2.8-5.6-5.4-11.8-7.6-18.1l-30.5,0.4c-22.4,0-40.6-18.2-40.6-40.6v-40.6
			c0-22.4,18.2-40.6,40.6-40.6h30.8c2-6,4.6-12.2,7.5-18.2l-21.8-21.3c-7.7-7.7-11.9-17.9-11.9-28.7c0-10.8,4.2-21,11.9-28.7
			l28.7-28.7c7.7-7.7,17.9-11.9,28.7-11.9c0,0,0,0,0,0c10.8,0,21,4.2,28.7,11.9l21.7,21.7c5.6-2.8,11.8-5.4,18.2-7.6l-0.4-30.5
			c0-22.4,18.2-40.6,40.6-40.6h40.6c22.4,0,40.6,18.2,40.6,40.6v30.7c6,2,12.2,4.6,18.2,7.5l21.3-21.8c7.6-7.7,17.8-11.9,28.7-11.9
			c0,0,0,0,0,0c10.8,0,21,4.2,28.7,11.9l28.7,28.7c7.7,7.6,11.9,17.8,11.9,28.7c0,10.8-4.2,21-11.9,28.7l-21.7,21.7
			c2.8,5.6,5.4,11.8,7.6,18.1l30.5-0.4c22.4,0,40.6,18.2,40.6,40.6v40.6c0,22.4-18.2,40.6-40.6,40.6h-30.7
			c-2.2,6.2-4.7,12.3-7.6,18.2l21.8,21.3c7.7,7.7,11.9,17.9,11.9,28.7c0,10.8-4.2,21-11.9,28.7l-28.7,28.7
			c-7.7,7.7-17.9,11.9-28.7,11.9c0,0,0,0,0,0c-10.8,0-21-4.2-28.7-11.9l-21.7-21.7c-5.6,2.8-11.8,5.4-18.2,7.6l0.4,30.5
			C307.9,505.3,289.7,523.5,267.3,523.5z M168.3,404.2c5.9,0,11.8,1.3,17.3,4c4.6,2.2,9.5,4.2,14.4,6c16,5.6,26.7,20.9,26.7,38.1
			v30.7h40.6v-30.7c0-17.1,10.7-32.4,26.7-38.1c4.9-1.7,9.7-3.7,14.3-6c15.4-7.4,33.8-4.2,46,7.9l21.7,21.7l28.7-28.7l-21.7-21.7
			c-12.2-12.2-15.4-30.7-7.9-46c2.3-4.6,4.2-9.4,6-14.3c5.6-16,20.9-26.7,38.1-26.7h30.8v-40.6h-30.8c-17.2,0-32.5-10.8-38.1-26.8
			c-1.7-4.9-3.7-9.7-5.9-14.3c-7.4-15.3-4.2-33.8,7.9-46l21.7-21.7l-28.7-28.7l-21.7,21.7c-12.1,12.2-30.6,15.4-46,7.9
			c-4.6-2.2-9.5-4.2-14.4-6c-16-5.6-26.7-20.9-26.7-38.1V77.1h-40.6v30.7c0,17.1-10.7,32.4-26.7,38.1c-4.9,1.7-9.7,3.7-14.3,6
			c-15.4,7.4-33.8,4.2-46-7.9l-21.7-21.7l-28.7,28.7l21.7,21.7c12.2,12.2,15.4,30.7,7.9,46c-2.3,4.6-4.2,9.4-6,14.3
			c-5.6,16-20.9,26.7-38.1,26.7H44.1v40.6h30.8c17.2,0,32.5,10.8,38.1,26.8c1.7,4.9,3.7,9.7,5.9,14.3c7.4,15.3,4.2,33.8-7.9,46
			l-21.7,21.7l28.7,28.7l21.7-21.7C147.4,408.3,157.8,404.2,168.3,404.2z"/>
	</g>
</g>
</svg>
