<?xml version="1.0" encoding="utf-8"?>
<!-- Generator: Adobe Illustrator 19.0.0, SVG Export Plug-In . SVG Version: 6.00 Build 0)  -->
<svg version="1.1" id="Layer_1" xmlns="http://www.w3.org/2000/svg" xmlns:xlink="http://www.w3.org/1999/xlink" x="0px" y="0px"
	 viewBox="-293 385 24 24" style="enable-background:new -293 385 24 24;" xml:space="preserve">
<style type="text/css">
	.st0{fill:none;stroke:#333232;stroke-miterlimit:10;}
	.st1{fill:none;}
</style>
<g id="Outline_Icons_1_">
	<g>
		<path class="st0" d="M-269.5,403.5c0,0.6-0.4,1-1,1h-21c-0.6,0-1-0.4-1-1s0.4-1,1-1h21C-269.9,402.5-269.5,402.9-269.5,403.5z"/>
		<line class="st0" x1="-273.5" y1="402.5" x2="-273.5" y2="404.5"/>
		<line class="st0" x1="-286.5" y1="399" x2="-287.5" y2="398"/>
		<line class="st0" x1="-279.5" y1="399" x2="-278.5" y2="398"/>
		<line class="st0" x1="-287" y1="400.5" x2="-288.5" y2="400.5"/>
		<line class="st0" x1="-277.5" y1="400.5" x2="-279" y2="400.5"/>
		<path class="st0" d="M-279.7,394.9c1,0.8,2.5,0.8,3.5-0.1"/>
		<path class="st0" d="M-274,385.5l-4.5,1l-5.6,11.4c-0.3,0.6-0.3,1.1,0.2,1.4c0.4,0.3,1.1,0.3,1.4-0.2l4.7-7.1l2,1.5l-0.7,2.3
			c-0.1,0.4,0.1,0.7,0.3,1c0.2,0.3,0.6,0.4,1,0.3c0.4,0,0.7-0.3,0.9-0.6l1.9-5.6l2.9-0.8v-4.6H-274z"/>
	</g>
</g>
<g id="Invisible_Shape">
	<rect x="-293" y="385" class="st1" width="24" height="24"/>
</g>
</svg>
