<?xml version="1.0" encoding="utf-8"?>
<!-- Generator: Adobe Illustrator 19.0.0, SVG Export Plug-In . SVG Version: 6.00 Build 0)  -->
<svg version="1.1" id="Capa_1" xmlns="http://www.w3.org/2000/svg" xmlns:xlink="http://www.w3.org/1999/xlink" x="0px" y="0px"
	 viewBox="-290 382 30 30" style="enable-background:new -290 382 30 30;" xml:space="preserve">
<style type="text/css">
	.st0{fill:#FFFFFF;}
</style>
<path class="st0" d="M-281.2,405l-0.7,0.7c-0.3,0.3-0.3,0.8,0,1.1c0.1,0.2,0.3,0.2,0.5,0.2c0.2,0,0.4,0,0.6-0.2l0.7-0.7
	c0.3-0.3,0.3-0.8,0-1.1C-280.4,404.7-280.9,404.8-281.2,405z M-283,399.2h-1c-0.4,0-0.8,0.3-0.8,0.8s0.3,0.8,0.8,0.8h1
	c0.4,0,0.8-0.3,0.8-0.8S-282.6,399.2-283,399.2z M-275,392.6c0.4,0,0.8-0.3,0.8-0.8v-1c0-0.4-0.3-0.8-0.8-0.8s-0.8,0.3-0.8,0.8v1
	C-275.8,392.3-275.4,392.6-275,392.6z M-280.8,393c-0.3-0.3-0.8-0.3-1.1,0c-0.3,0.3-0.3,0.8,0,1.1l0.7,0.7c0.1,0.1,0.3,0.2,0.5,0.2
	c0.2,0,0.4-0.1,0.5-0.2c0.3-0.3,0.3-0.8,0-1.1L-280.8,393z M-271.5,395.3l-3.3,3.2c-0.5-0.1-1,0-1.4,0.3c-0.6,0.6-0.6,1.5,0,2.1
	c0.6,0.6,1.5,0.6,2.1,0c0.4-0.4,0.5-0.9,0.4-1.4l3.3-3.2c0.3-0.3,0.3-0.8,0-1.1C-270.7,395-271.2,395-271.5,395.3z M-274.2,387.9
	v-0.6c1.1-0.3,2-1.4,2-2.6c-0.1-1.4-1.3-2.7-2.8-2.7s-2.7,1.2-2.7,2.7c0,1.2,0.8,2.3,2,2.6v0.6c-6.3,0.4-11.3,5.6-11.3,11.9
	c0,6.6,5.4,12,12,12s12-5.4,12-12C-263,393.5-268,388.3-274.2,387.9z M-276.2,384.8c0-0.7,0.5-1.2,1.2-1.2s1.2,0.5,1.2,1.2
	c0,0.6-0.5,1.2-1.2,1.2S-276.2,385.4-276.2,384.8z M-275,410.3c-5.8,0-10.5-4.7-10.5-10.5c0-5.8,4.7-10.4,10.5-10.4
	s10.5,4.7,10.5,10.5C-264.5,405.7-269.2,410.3-275,410.3z M-275,407.2c-0.4,0-0.8,0.3-0.8,0.8v1c0,0.4,0.3,0.8,0.8,0.8
	s0.8-0.3,0.8-0.8v-1C-274.2,407.5-274.6,407.2-275,407.2z M-266,399.2h-1c-0.4,0-0.8,0.3-0.8,0.8s0.3,0.8,0.8,0.8h1
	c0.4,0,0.8-0.3,0.8-0.8S-265.6,399.2-266,399.2z M-269.2,393l-0.7,0.7c-0.3,0.3-0.3,0.8,0,1.1c0.1,0.1,0.3,0.2,0.5,0.2
	c0.2,0,0.4-0.1,0.5-0.2l0.7-0.7c0.3-0.3,0.3-0.8,0-1.1C-268.4,392.7-268.9,392.7-269.2,393z M-268.8,405c-0.3-0.3-0.8-0.3-1.1,0
	c-0.3,0.3-0.3,0.8,0,1.1l0.7,0.7c0.2,0.2,0.4,0.2,0.6,0.2c0.2,0,0.4-0.1,0.5-0.2c0.3-0.3,0.3-0.8,0-1.1L-268.8,405z"/>
</svg>
