<?xml version="1.0" encoding="utf-8"?>
<!-- Generator: Adobe Illustrator 19.0.0, SVG Export Plug-In . SVG Version: 6.00 Build 0)  -->
<svg version="1.1" id="Layer_1" xmlns="http://www.w3.org/2000/svg" xmlns:xlink="http://www.w3.org/1999/xlink" x="0px" y="0px"
	 viewBox="-257 349 96 96" style="enable-background:new -257 349 96 96;" xml:space="preserve">
<style type="text/css">
	.st0{fill:none;stroke:#FFFFFF;stroke-width:2;stroke-linecap:round;stroke-linejoin:round;stroke-miterlimit:10;}
	.st1{fill:none;stroke:#FFFFFF;stroke-width:2;stroke-miterlimit:10;}
</style>
<g>
	<path class="st0" d="M-172,377.9v-8.7l-17.3-18.6h-49.2c-4.1,0-7.4,3.3-7.4,7.4v78.1c0,4.1,3.3,7.4,7.4,7.4h59.1
		c4.1,0,7.4-3.3,7.4-7.4v-49"/>
	<path class="st1" d="M-189.3,350.1v11.6c0,4.1,3.3,7.4,7.4,7.4h9.9"/>
	<g>
		<circle class="st1" cx="-223.3" cy="374.9" r="8.8"/>
		<path class="st0" d="M-231,379.2l-0.7-1.7l-3.1,11.6l4-1.4l2.4,3.1l2.1-7.6C-228.3,382.4-230,381-231,379.2z"/>
		<path class="st0" d="M-215,377.7l-0.6,1.4c-1,1.8-2.7,3.3-4.7,4l2.1,7.6l2.8-3.2l3.7,1.5L-215,377.7z"/>
	</g>
	<line class="st0" x1="-234.8" y1="412" x2="-190.6" y2="412"/>
	<line class="st0" x1="-234.8" y1="425" x2="-209.3" y2="425"/>
</g>
</svg>
